# xmcd
#
# Track frame offsets: 
#        150
#        18492
#        34853
#        50890
#        68603
#        88508
#        107718
#        123912
#        144668
#        164759
#        184118
#        205112
#        221226
#        240322
#        258409
#        280095
#        298835
#        316226
#
# Disc length: 4453 seconds
#
# Revision: 0
# Processed by: cddbd v1.5.2PL0 Copyright (c) Steve Scherf et al.
# Submitted via: ExactAudioCopyFreeDBPlugin 1.0
#
DISCID=12116312
DTITLE=Kip Moore - Up All Night (Deluxe Edition)
DYEAR=2014
DGENRE=Country
TTITLE0=Drive Me Crazy
TTITLE1=Beer Money
TTITLE2=Something 'Bou A Truck
TTITLE3=Everything But You
TTITLE4=Crazy One More Time
TTITLE5=Where You Are Tonight
TTITLE6=Hey Pretty Girl
TTITLE7=Reckless (Still Growing Up
TTITLE8=Up All Night
TTITLE9=Fly Again
TTITLE10=Faith When I Fall
TTITLE11=Mary Was The Marrying Kind
TTITLE12=Motorcycle
TTITLE13=Beer Money (Live Nashville 2014)
TTITLE14=Come And Get It (Live Nashville 2014)
TTITLE15=Hang Awhile (Live Nashville 2014)
TTITLE16=Heart's Desire (Live Nashville 2014)
TTITLE17=Lipstick (Live Nashville 2014)
EXTD=
EXTT0=
EXTT1=
EXTT2=
EXTT3=
EXTT4=
EXTT5=
EXTT6=
EXTT7=
EXTT8=
EXTT9=
EXTT10=
EXTT11=
EXTT12=
EXTT13=
EXTT14=
EXTT15=
EXTT16=
EXTT17=
PLAYORDER=
